<svg width="15" height="12" viewBox="0 0 15 12" fill="none" xmlns="http://www.w3.org/2000/svg">
<path d="M12.4579 3.72065H12.3973C12.2146 3.72679 12.0331 3.74984 11.8554 3.78945H11.8126C11.2285 3.93469 10.7217 4.27003 10.3865 4.73304C10.5097 4.41708 10.7061 4.1295 10.9622 3.89021C11.2183 3.65091 11.5279 3.46561 11.8696 3.34714C11.8469 2.5732 11.5407 1.82895 11.0005 1.23475C10.4604 0.640554 9.718 0.231155 8.89332 0.072764C8.06863 -0.0856266 7.20992 0.0162527 6.45605 0.361925C5.70219 0.707598 5.09725 1.27685 4.73906 1.97762C5.20128 2.24155 5.58285 2.60916 5.84792 3.04589C6.11299 3.48263 6.25283 3.97414 6.25431 4.47421C6.25431 4.50042 6.25431 4.52335 6.25431 4.54629C6.13267 4.12198 5.90951 3.72797 5.60111 3.39299C5.29272 3.05801 4.90686 2.7905 4.47167 2.60996C4.37307 2.56749 4.27189 2.5303 4.16862 2.49856H4.14723C4.0584 2.47002 3.96795 2.44596 3.87627 2.42648H3.79783C3.71939 2.4101 3.64452 2.40027 3.56608 2.39044H3.46982C3.37278 2.37999 3.27518 2.37452 3.17747 2.37406H3.15251C3.07407 2.37406 2.9992 2.37406 2.92433 2.37406H2.83163L2.70328 2.39372C2.63979 2.39901 2.57669 2.40776 2.51432 2.41993L2.40023 2.44614C2.33524 2.45835 2.27097 2.47366 2.20771 2.49201L2.09718 2.52805L1.91535 2.5903L1.7977 2.63945L1.63726 2.71153C1.59448 2.73119 1.55169 2.7574 1.50891 2.78033L1.37699 2.85569L1.24864 2.96053C1.21299 2.98674 1.17377 3.00968 1.14169 3.03589C1.1096 3.0621 1.04542 3.11124 0.999074 3.15056L0.913507 3.21936L0.77446 3.36025L0.710286 3.42577C0.663937 3.47492 0.617588 3.53062 0.574804 3.58631L0.528455 3.64529C0.482106 3.70426 0.442888 3.76651 0.400104 3.82877L0.368017 3.88119C0.326224 3.94653 0.289299 4.01439 0.257494 4.08432L0.228971 4.13347C0.196883 4.20555 0.168361 4.27763 0.139838 4.34971C0.138316 4.36606 0.138316 4.3825 0.139838 4.39885C0.111316 4.47093 0.0899239 4.54956 0.0685322 4.62492C0.0685322 4.6413 0.0685322 4.65768 0.0685322 4.67407C0.0685322 4.7527 0.0364449 4.82805 0.0257491 4.90669V4.96239C0.0257491 5.04102 0.0257493 5.11637 0.00792287 5.19501C-0.00990359 5.27364 0.00792287 5.27692 0.00792287 5.31623C0.00792287 6.09828 0.345988 6.8483 0.947748 7.40129C1.54951 7.95429 2.36567 8.26495 3.21668 8.26495C3.37064 8.26407 3.52434 8.25313 3.67661 8.23219V11.4135C3.67661 11.7412 5.49491 12 7.73747 12C9.98004 12 11.7769 11.7346 11.7769 11.4135V8.2027C12.0161 8.26988 12.2648 8.30411 12.515 8.30427C13.0321 8.30374 13.5363 8.15559 13.9578 7.88033C14.3793 7.60506 14.6974 7.21625 14.8681 6.76766C14.8894 6.71524 14.9073 6.66281 14.9251 6.60712C14.9239 6.59842 14.9239 6.58961 14.9251 6.58091C14.9251 6.52521 14.9536 6.46951 14.9643 6.41381C14.9661 6.40405 14.9661 6.39409 14.9643 6.38432C14.9887 6.2622 15.0006 6.13826 15 6.0141C15 5.7093 14.934 5.40755 14.8057 5.12648C14.6774 4.84541 14.4894 4.59067 14.2527 4.37713C14.016 4.1636 13.7354 3.99556 13.4272 3.88285C13.1191 3.77013 12.7895 3.71498 12.4579 3.72065ZM8.13322 0.359103C8.93373 0.359051 9.70898 0.616579 10.3244 1.08699C10.9399 1.5574 11.3566 2.21099 11.5024 2.93432C11.2126 2.2145 10.6893 1.5938 10.0032 1.1561C9.31712 0.718403 8.50137 0.484806 7.66617 0.486881C7.42691 0.487434 7.18821 0.508273 6.95311 0.549132C7.33121 0.422321 7.73073 0.357986 8.13322 0.359103ZM7.68756 7.48518C9.61282 7.48518 11.1922 7.78005 11.3598 8.10441C10.7929 7.90455 9.36681 7.77678 7.68756 7.77678C6.00831 7.77678 4.58219 7.91766 4.01531 8.10441C4.18645 7.78005 5.7623 7.48518 7.68756 7.48518ZM7.68756 10.2668C9.61282 10.2668 11.1994 10.4962 11.3598 10.7615C10.7929 10.5617 9.36681 10.4339 7.68756 10.4339C6.00831 10.4339 4.58219 10.5748 4.01531 10.7615C4.17218 10.4962 5.7623 10.2668 7.68756 10.2668ZM7.68756 11.6822C5.65178 11.6822 3.99748 11.4594 3.99748 11.1809C3.99748 10.9024 5.65178 10.6829 7.68756 10.6829C9.72334 10.6829 11.3776 10.9057 11.3776 11.1809C11.3776 11.4561 9.72691 11.6822 7.68756 11.6822ZM12.1977 4.11381C12.047 4.11521 11.8967 4.12836 11.7484 4.15312C11.9839 4.07451 12.2323 4.03351 12.4829 4.0319C12.9868 4.02925 13.4755 4.19015 13.863 4.48625C14.2504 4.78235 14.5116 5.19463 14.6007 5.65042C14.4178 5.20003 14.0898 4.81161 13.6604 4.53705C13.2311 4.26248 12.7208 4.11483 12.1977 4.11381Z" fill="#6C5DD3"/>
</svg>
